<?xml version="1.0" encoding="UTF-8" standalone="no"?>
<!-- Generator: Adobe Illustrator 13.0.0, SVG Export Plug-In . SVG Version: 6.00 Build 14948)  -->

<svg
   xmlns:dc="http://purl.org/dc/elements/1.1/"
   xmlns:cc="http://creativecommons.org/ns#"
   xmlns:rdf="http://www.w3.org/1999/02/22-rdf-syntax-ns#"
   xmlns:svg="http://www.w3.org/2000/svg"
   xmlns="http://www.w3.org/2000/svg"
   xmlns:xlink="http://www.w3.org/1999/xlink"
   xmlns:sodipodi="http://sodipodi.sourceforge.net/DTD/sodipodi-0.dtd"
   xmlns:inkscape="http://www.inkscape.org/namespaces/inkscape"
   version="1.1"
   id="Layer_1"
   x="0px"
   y="0px"
   width="148.08826"
   height="135.95134"
   viewBox="0 0 148.08826 135.95134"
   enable-background="new 0 0 14 14"
   xml:space="preserve"
   inkscape:version="0.48.4 r9939"
   sodipodi:docname="Forestry logo.svg"><metadata
   id="metadata3035"><rdf:RDF><cc:Work
       rdf:about=""><dc:format>image/svg+xml</dc:format><dc:type
         rdf:resource="http://purl.org/dc/dcmitype/StillImage" /><dc:title></dc:title></cc:Work></rdf:RDF></metadata><defs
   id="defs3033"><linearGradient
   inkscape:collect="always"
   id="linearGradient4197"><stop
     style="stop-color:#71c837;stop-opacity:1;"
     offset="0"
     id="stop4199" /><stop
     style="stop-color:#71c837;stop-opacity:0;"
     offset="1"
     id="stop4201" /></linearGradient><linearGradient
   inkscape:collect="always"
   id="linearGradient4182"><stop
     style="stop-color:#447821;stop-opacity:1;"
     offset="0"
     id="stop4184" /><stop
     style="stop-color:#447821;stop-opacity:0;"
     offset="1"
     id="stop4186" /></linearGradient><linearGradient
   inkscape:collect="always"
   id="linearGradient4068"><stop
     style="stop-color:#000000;stop-opacity:1;"
     offset="0"
     id="stop4070" /><stop
     style="stop-color:#000000;stop-opacity:0;"
     offset="1"
     id="stop4072" /></linearGradient><linearGradient
   inkscape:collect="always"
   id="linearGradient3257"><stop
     style="stop-color:#002b00;stop-opacity:1;"
     offset="0"
     id="stop3259" /><stop
     style="stop-color:#002b00;stop-opacity:0;"
     offset="1"
     id="stop3261" /></linearGradient><linearGradient
   inkscape:collect="always"
   id="linearGradient3221"><stop
     style="stop-color:#784421;stop-opacity:1;"
     offset="0"
     id="stop3223" /><stop
     style="stop-color:#784421;stop-opacity:0;"
     offset="1"
     id="stop3225" /></linearGradient><linearGradient
   inkscape:collect="always"
   id="linearGradient3182"><stop
     style="stop-color:#00aa00;stop-opacity:1;"
     offset="0"
     id="stop3184" /><stop
     style="stop-color:#00aa00;stop-opacity:0;"
     offset="1"
     id="stop3186" /></linearGradient><linearGradient
   inkscape:collect="always"
   id="linearGradient3174"><stop
     style="stop-color:#00aa00;stop-opacity:1;"
     offset="0"
     id="stop3176" /><stop
     style="stop-color:#00aa00;stop-opacity:0;"
     offset="1"
     id="stop3178" /></linearGradient><linearGradient
   inkscape:collect="always"
   id="linearGradient3166"><stop
     style="stop-color:#00aa00;stop-opacity:1;"
     offset="0"
     id="stop3168" /><stop
     style="stop-color:#00aa00;stop-opacity:0;"
     offset="1"
     id="stop3170" /></linearGradient><linearGradient
   inkscape:collect="always"
   id="linearGradient3105"><stop
     style="stop-color:#784421;stop-opacity:1;"
     offset="0"
     id="stop3107" /><stop
     style="stop-color:#784421;stop-opacity:0;"
     offset="1"
     id="stop3109" /></linearGradient>
		
		
	
	
	

	
	
	
	
<linearGradient
   inkscape:collect="always"
   xlink:href="#linearGradient3105"
   id="linearGradient3111"
   x1="-3.314563"
   y1="12.401893"
   x2="-3.9995728"
   y2="12.423989"
   gradientUnits="userSpaceOnUse" /><linearGradient
   inkscape:collect="always"
   xlink:href="#linearGradient3166"
   id="linearGradient3172"
   x1="12.813661"
   y1="9.1100674"
   x2="10.515563"
   y2="9.4415236"
   gradientUnits="userSpaceOnUse" /><linearGradient
   inkscape:collect="always"
   xlink:href="#linearGradient3174"
   id="linearGradient3180"
   x1="12.239136"
   y1="5.8838925"
   x2="10.618678"
   y2="6.1696091"
   gradientUnits="userSpaceOnUse" /><linearGradient
   inkscape:collect="always"
   xlink:href="#linearGradient3182"
   id="linearGradient3188"
   x1="11.509933"
   y1="3.0333681"
   x2="9.1455441"
   y2="3.0554652"
   gradientUnits="userSpaceOnUse" /><linearGradient
   inkscape:collect="always"
   xlink:href="#linearGradient3221"
   id="linearGradient3227"
   x1="9.1451569"
   y1="12.048339"
   x2="10.429825"
   y2="12.158824"
   gradientUnits="userSpaceOnUse" /><radialGradient
   inkscape:collect="always"
   xlink:href="#linearGradient3257"
   id="radialGradient3263"
   cx="9.9413576"
   cy="11.304412"
   fx="9.9413576"
   fy="11.304412"
   r="1.7534332"
   gradientTransform="matrix(0.91299729,-0.01505773,0.01141528,0.69164987,0.62772788,3.418115)"
   gradientUnits="userSpaceOnUse" /><filter
   inkscape:collect="always"
   id="filter4064"
   color-interpolation-filters="sRGB"><feGaussianBlur
     inkscape:collect="always"
     stdDeviation="0.017429991"
     id="feGaussianBlur4066" /></filter><linearGradient
   inkscape:collect="always"
   xlink:href="#linearGradient4068"
   id="linearGradient4074"
   x1="7.9317946"
   y1="6.681334"
   x2="8.8326817"
   y2="6.9819522"
   gradientUnits="userSpaceOnUse" /><linearGradient
   inkscape:collect="always"
   xlink:href="#linearGradient4068-1"
   id="linearGradient4074-7"
   x1="7.9317946"
   y1="6.681334"
   x2="8.8326817"
   y2="6.9819522"
   gradientUnits="userSpaceOnUse" /><linearGradient
   inkscape:collect="always"
   id="linearGradient4068-1"><stop
     style="stop-color:#000000;stop-opacity:1;"
     offset="0"
     id="stop4070-2" /><stop
     style="stop-color:#000000;stop-opacity:0;"
     offset="1"
     id="stop4072-6" /></linearGradient><filter
   color-interpolation-filters="sRGB"
   inkscape:collect="always"
   id="filter4064-0"><feGaussianBlur
     inkscape:collect="always"
     stdDeviation="0.017429991"
     id="feGaussianBlur4066-4" /></filter><linearGradient
   gradientTransform="translate(2.7711084,-0.3716718)"
   y2="6.9819522"
   x2="8.8326817"
   y1="6.681334"
   x1="7.9317946"
   gradientUnits="userSpaceOnUse"
   id="linearGradient4093"
   xlink:href="#linearGradient4068-1"
   inkscape:collect="always" /><linearGradient
   inkscape:collect="always"
   xlink:href="#linearGradient4068-6"
   id="linearGradient4074-4"
   x1="7.9317946"
   y1="6.681334"
   x2="8.8326817"
   y2="6.9819522"
   gradientUnits="userSpaceOnUse" /><linearGradient
   inkscape:collect="always"
   id="linearGradient4068-6"><stop
     style="stop-color:#000000;stop-opacity:1;"
     offset="0"
     id="stop4070-0" /><stop
     style="stop-color:#000000;stop-opacity:0;"
     offset="1"
     id="stop4072-3" /></linearGradient><filter
   color-interpolation-filters="sRGB"
   inkscape:collect="always"
   id="filter4064-6"><feGaussianBlur
     inkscape:collect="always"
     stdDeviation="0.017429991"
     id="feGaussianBlur4066-2" /></filter><linearGradient
   gradientTransform="translate(3.0362731,0.578503)"
   y2="6.9819522"
   x2="8.8326817"
   y1="6.681334"
   x1="7.9317946"
   gradientUnits="userSpaceOnUse"
   id="linearGradient4093-4"
   xlink:href="#linearGradient4068-6"
   inkscape:collect="always" /><linearGradient
   inkscape:collect="always"
   xlink:href="#linearGradient4182"
   id="linearGradient4188"
   x1="13.081475"
   y1="9.0431347"
   x2="10.562407"
   y2="8.8884554"
   gradientUnits="userSpaceOnUse" /><linearGradient
   inkscape:collect="always"
   xlink:href="#linearGradient4197"
   id="linearGradient4203"
   x1="7.3738189"
   y1="3.8392949"
   x2="8.8326817"
   y2="5.925642"
   gradientUnits="userSpaceOnUse" /><linearGradient
   inkscape:collect="always"
   xlink:href="#linearGradient4197"
   id="linearGradient4262"
   gradientUnits="userSpaceOnUse"
   x1="7.3738189"
   y1="3.8392949"
   x2="8.8326817"
   y2="5.925642"
   gradientTransform="scale(5,5)" /><linearGradient
   inkscape:collect="always"
   xlink:href="#linearGradient4182"
   id="linearGradient4265"
   gradientUnits="userSpaceOnUse"
   x1="13.081475"
   y1="9.0431347"
   x2="10.562407"
   y2="8.8884554"
   gradientTransform="scale(5,5)" /><radialGradient
   inkscape:collect="always"
   xlink:href="#linearGradient3257"
   id="radialGradient4268"
   gradientUnits="userSpaceOnUse"
   gradientTransform="matrix(4.5649864,-0.07528865,0.0570764,3.4582494,3.1386394,17.090575)"
   cx="9.9413576"
   cy="11.304412"
   fx="9.9413576"
   fy="11.304412"
   r="1.7534332" /><linearGradient
   inkscape:collect="always"
   xlink:href="#linearGradient3221"
   id="linearGradient4302"
   gradientUnits="userSpaceOnUse"
   x1="9.1451569"
   y1="12.048339"
   x2="10.429825"
   y2="12.158824" /><radialGradient
   inkscape:collect="always"
   xlink:href="#linearGradient3257"
   id="radialGradient4304"
   gradientUnits="userSpaceOnUse"
   gradientTransform="matrix(4.5649864,-0.07528865,0.0570764,3.4582494,3.1386394,17.090575)"
   cx="9.9413576"
   cy="11.304412"
   fx="9.9413576"
   fy="11.304412"
   r="1.7534332" /><linearGradient
   inkscape:collect="always"
   xlink:href="#linearGradient4182"
   id="linearGradient4306"
   gradientUnits="userSpaceOnUse"
   gradientTransform="scale(5,5)"
   x1="13.081475"
   y1="9.0431347"
   x2="10.562407"
   y2="8.8884554" /><linearGradient
   inkscape:collect="always"
   xlink:href="#linearGradient4197"
   id="linearGradient4308"
   gradientUnits="userSpaceOnUse"
   gradientTransform="scale(5,5)"
   x1="7.3738189"
   y1="3.8392949"
   x2="8.8326817"
   y2="5.925642" /><linearGradient
   inkscape:collect="always"
   xlink:href="#linearGradient4068"
   id="linearGradient4310"
   gradientUnits="userSpaceOnUse"
   x1="7.9317946"
   y1="6.681334"
   x2="8.8326817"
   y2="6.9819522" /><linearGradient
   inkscape:collect="always"
   xlink:href="#linearGradient4068-1"
   id="linearGradient4312"
   gradientUnits="userSpaceOnUse"
   gradientTransform="translate(2.7711084,-0.3716718)"
   x1="7.9317946"
   y1="6.681334"
   x2="8.8326817"
   y2="6.9819522" /><linearGradient
   inkscape:collect="always"
   xlink:href="#linearGradient4068-6"
   id="linearGradient4314"
   gradientUnits="userSpaceOnUse"
   gradientTransform="translate(3.0362731,0.578503)"
   x1="7.9317946"
   y1="6.681334"
   x2="8.8326817"
   y2="6.9819522" /><linearGradient
   inkscape:collect="always"
   xlink:href="#linearGradient3105"
   id="linearGradient4316"
   gradientUnits="userSpaceOnUse"
   x1="-3.314563"
   y1="12.401893"
   x2="-3.9995728"
   y2="12.423989" /><linearGradient
   inkscape:collect="always"
   xlink:href="#linearGradient3166"
   id="linearGradient4318"
   gradientUnits="userSpaceOnUse"
   x1="12.813661"
   y1="9.1100674"
   x2="10.515563"
   y2="9.4415236" /><linearGradient
   inkscape:collect="always"
   xlink:href="#linearGradient3174"
   id="linearGradient4320"
   gradientUnits="userSpaceOnUse"
   x1="12.239136"
   y1="5.8838925"
   x2="10.618678"
   y2="6.1696091" /><linearGradient
   inkscape:collect="always"
   xlink:href="#linearGradient3182"
   id="linearGradient4322"
   gradientUnits="userSpaceOnUse"
   x1="11.509933"
   y1="3.0333681"
   x2="9.1455441"
   y2="3.0554652" /><linearGradient
   inkscape:collect="always"
   xlink:href="#linearGradient4197"
   id="linearGradient4341"
   gradientUnits="userSpaceOnUse"
   gradientTransform="scale(10,10)"
   x1="7.3738189"
   y1="3.8392949"
   x2="8.8326817"
   y2="5.925642" /><linearGradient
   inkscape:collect="always"
   xlink:href="#linearGradient4182"
   id="linearGradient4344"
   gradientUnits="userSpaceOnUse"
   gradientTransform="scale(10,10)"
   x1="13.081475"
   y1="9.0431347"
   x2="10.562407"
   y2="8.8884554" /><radialGradient
   inkscape:collect="always"
   xlink:href="#linearGradient3257"
   id="radialGradient4347"
   gradientUnits="userSpaceOnUse"
   gradientTransform="matrix(9.1299728,-0.1505773,0.1141528,6.9164988,6.2772788,34.18115)"
   cx="9.9413576"
   cy="11.304412"
   fx="9.9413576"
   fy="11.304412"
   r="1.7534332" /></defs><sodipodi:namedview
   pagecolor="#ffffff"
   bordercolor="#666666"
   borderopacity="1"
   objecttolerance="10"
   gridtolerance="10"
   guidetolerance="10"
   inkscape:pageopacity="0"
   inkscape:pageshadow="2"
   inkscape:window-width="1280"
   inkscape:window-height="962"
   id="namedview3031"
   showgrid="false"
   inkscape:zoom="1"
   inkscape:cx="74.589324"
   inkscape:cy="45.533917"
   inkscape:window-x="-8"
   inkscape:window-y="-8"
   inkscape:window-maximized="1"
   inkscape:current-layer="Layer_1"
   fit-margin-top="0"
   fit-margin-left="0"
   fit-margin-right="0"
   fit-margin-bottom="0"
   inkscape:snap-grids="false"
   inkscape:snap-bbox="true"
   inkscape:bbox-nodes="true"
   inkscape:object-paths="true"
   inkscape:object-nodes="true"><inkscape:grid
     type="xygrid"
     id="grid3031"
     empspacing="5"
     visible="true"
     enabled="true"
     snapvisiblegridlinesonly="true"
     originx="66.78487px"
     originy="61.178793px" /></sodipodi:namedview>


<g
   style="fill:#379400;fill-opacity:0.87058824"
   id="g3029"
   transform="matrix(5,0,0,5,37.747845,31.960061)">
	</g><path
   d="m 83.211562,65.58445 c 17.479998,12.96 5.56,47.37 -19.099998,37.08 -6.670002,-2.78 -2.320002,-12.11 -19.600002,-8.36 -5.46,1.29 -6.06,11.46 -11.12,13.08 -27.6899994,10.18 -33.2499995,-39.33 -6.669998,-38.04 -1.52,-7.72 -7.380001,-2.58 -6.37,-10.19 -0.410001,-7.82 13.822218,1.013308 13.11222,-0.0567 -2.336734,-18.430012 26.69,-30.33 34.769998,-12 2.420002,5.57 0.66336,11.355548 -2.366638,18.315548 5.06,0.86 13.504418,-4.328858 17.344418,0.17114 z"
   id="path3027"
   style="fill:none;stroke:none"
   inkscape:connector-curvature="0"
   sodipodi:nodetypes="cccccccccc" /><g
   id="g3265"
   transform="scale(10,10)"><path
     d="m 9.0057434,10.978247 c -0.047172,1.320043 -0.4330132,2.09236 -0.860587,2.616198 l 3.1629996,0 c -0.404,-0.546 -0.813896,-1.417506 -0.820759,-2.622685 -0.0021,-0.377316 -0.342241,-0.377316 -0.6419451,-0.377316 -0.5218257,0 -0.8259932,0 -0.8397085,0.383803 z"
     id="path3025-4"
     style="fill:#28170b;fill-opacity:1"
     inkscape:connector-curvature="0"
     sodipodi:nodetypes="sccsss" /><path
     d="m 9.0057433,10.978247 c -0.047171,1.320043 -0.433013,2.09236 -0.860587,2.616198 l 3.1629997,0 c -0.404,-0.546 -0.849179,-1.417822 -0.820759,-2.622685 0.0089,-0.377316 -0.342241,-0.377316 -0.6640426,-0.377316 -0.4886793,0 -0.8038961,0 -0.8176111,0.383803 z"
     id="path3025-4-8"
     style="fill:url(#linearGradient4302);fill-opacity:1"
     inkscape:connector-curvature="0"
     sodipodi:nodetypes="sccsss" /></g><path
   inkscape:connector-curvature="0"
   id="path3068"
   d="m 96.58247,25.61224 c 8.68381,-0.09 16.47839,3.79417 21.5625,9.375 3.55804,3.90567 5.33253,9.00659 5.625,14.0625 0.9803,0.061 1.75304,-0.2591 2.8125,0 3.3003,0.8071 6.79364,2.88332 8.75,6.875 1.76257,3.59628 1.94866,7.53131 0.9375,10.625 -0.4166,1.27456 -1.24698,2.07013 -1.875,3.125 9.89952,5.53299 16.90597,17.32873 12.1875,31.5625 -2.09041,6.30593 -7.94839,11.93579 -16.25,14.6875 -8.06616,2.67366 -18.49222,1.55948 -29.0625,-5.625 0,0 -0.6561,-0.1929 -0.9375,-0.3125 -0.2814,-0.1196 -0.47145,-0.1497 -0.9375,-0.3125 -0.9321,-0.3257 -1.923758,-0.6232 -1.875,-0.625 -0.15286,0.006 -1.5625,0.625 -1.5625,0.625 l -0.3125,0.3125 -0.625,0.3125 c -20.298812,9.02367 -40.949988,-4.93691 -41.5625,-21.875 -0.24433,-6.75653 1.51014,-13.87343 5.625,-19.6875 3.001008,-4.24026 7.8069,-6.92752 13.4375,-8.4375 -2.14814,-6.30063 -2.609322,-13.02388 0,-19.375 3.452952,-8.40453 11.836206,-15.18578 24.0625,-15.3125 z"
   style="font-size:medium;font-style:normal;font-variant:normal;font-weight:normal;font-stretch:normal;text-indent:0;text-align:start;text-decoration:none;line-height:normal;letter-spacing:normal;word-spacing:normal;text-transform:none;direction:ltr;block-progression:tb;writing-mode:lr-tb;text-anchor:start;baseline-shift:baseline;color:#000000;fill:#379400;fill-opacity:1;fill-rule:nonzero;stroke:none;stroke-width:1px;marker:none;visibility:visible;display:inline;overflow:visible;enable-background:accumulate;font-family:Sans;-inkscape-font-specification:Sans" /><path
   inkscape:connector-curvature="0"
   id="path3068-8"
   d="m 99.507034,97.805128 c 6.746196,-0.104 18.702776,5.668712 15.574716,18.676652 -4.44582,-0.9955 -9.11456,-2.9894 -13.81178,-6.18204 0,0 -0.6561,-0.1929 -0.9375,-0.3125 -0.2814,-0.1196 -0.47145,-0.1497 -0.9375,-0.3125 -0.9321,-0.3257 -1.923758,-0.6232 -1.875,-0.625 -0.15286,0.006 -1.5625,0.625 -1.5625,0.625 l -0.3125,0.3125 -0.625,0.3125 c -4.902574,2.1794 -9.8257,3.01808 -14.482106,2.79791 -0.45323,-11.45771 11.134698,-15.17175 18.96917,-15.292522 z"
   style="font-size:medium;font-style:normal;font-variant:normal;font-weight:normal;font-stretch:normal;text-indent:0;text-align:start;text-decoration:none;line-height:normal;letter-spacing:normal;word-spacing:normal;text-transform:none;direction:ltr;block-progression:tb;writing-mode:lr-tb;text-anchor:start;baseline-shift:baseline;color:#000000;fill:url(#radialGradient4347);fill-opacity:1;fill-rule:nonzero;stroke:none;stroke-width:1px;marker:none;visibility:visible;display:inline;overflow:visible;enable-background:accumulate;font-family:Sans;-inkscape-font-specification:Sans"
   sodipodi:nodetypes="sccsccccccs" /><path
   inkscape:connector-curvature="0"
   id="path3068-88"
   d="m 96.58247,25.612238 c 8.68381,-0.09 16.47839,3.794172 21.5625,9.375 3.55804,3.90567 5.33253,9.00659 5.625,14.0625 0.9803,0.061 1.75304,-0.2591 2.8125,0 3.3003,0.8071 6.79364,2.883322 8.75,6.875002 1.76257,3.59628 1.94866,7.53131 0.9375,10.625 -0.4166,1.27456 -1.24698,2.07013 -1.875,3.125 9.89952,5.53299 16.90597,17.328732 12.1875,31.5625 -2.09041,6.30593 -7.94839,11.93579 -16.25,14.6875 -8.06616,2.67366 -18.49222,1.55948 -29.0625,-5.625 0,0 -0.6561,-0.1929 -0.9375,-0.3125 -0.2814,-0.1196 -0.4715,-0.1497 -0.9375,-0.3125 -0.9321,-0.3257 -1.92376,-0.6232 -1.875,-0.625 -0.1529,0.006 -1.5625,0.625 -1.5625,0.625 l -0.3125,0.3125 -0.625,0.3125 c -20.298812,9.02367 -40.94999,-4.93691 -41.562502,-21.874998 -0.24433,-6.756532 1.51014,-13.87343 5.625,-19.6875 3.001008,-4.24026 7.8069,-6.927522 13.437502,-8.4375 -2.14814,-6.30063 -2.609324,-13.023882 0,-19.375002 3.452952,-8.40453 11.836202,-15.18578 24.0625,-15.3125 z"
   style="font-size:medium;font-style:normal;font-variant:normal;font-weight:normal;font-stretch:normal;text-indent:0;text-align:start;text-decoration:none;line-height:normal;letter-spacing:normal;word-spacing:normal;text-transform:none;direction:ltr;block-progression:tb;writing-mode:lr-tb;text-anchor:start;baseline-shift:baseline;color:#000000;fill:url(#linearGradient4344);fill-opacity:1;fill-rule:nonzero;stroke:none;stroke-width:1px;marker:none;visibility:visible;display:inline;overflow:visible;enable-background:accumulate;font-family:Sans;-inkscape-font-specification:Sans" /><path
   inkscape:connector-curvature="0"
   id="path3068-2"
   d="m 96.58247,25.612238 c 8.68381,-0.09 16.47839,3.79417 21.5625,9.375 3.55804,3.90567 5.33253,9.00659 5.625,14.0625 0.9803,0.061 1.75304,-0.2591 2.8125,0 3.3003,0.8071 6.79364,2.88332 8.75,6.875 1.76257,3.59628 1.94866,7.53131 0.9375,10.625 -0.4166,1.27456 -1.24698,2.07013 -1.875,3.125 9.89952,5.53299 16.90597,17.32873 12.1875,31.562502 -2.09041,6.30593 -7.94839,11.93579 -16.25,14.6875 -8.06616,2.67366 -18.49222,1.55948 -29.0625,-5.625 0,0 -0.6561,-0.1929 -0.9375,-0.3125 -0.2814,-0.1196 -0.47145,-0.1497 -0.9375,-0.3125 -0.9321,-0.3257 -1.92376,-0.6232 -1.875,-0.625 -0.15286,0.006 -1.5625,0.625 -1.5625,0.625 l -0.3125,0.3125 -0.625,0.3125 c -20.298812,9.02367 -40.94999,-4.93691 -41.562502,-21.875002 -0.24433,-6.75653 1.51014,-13.873428 5.625,-19.6875 3.00101,-4.240258 7.8069,-6.92752 13.437502,-8.4375 -2.14814,-6.300628 -2.609324,-13.02388 0,-19.375 3.452952,-8.40453 11.836204,-15.18578 24.0625,-15.3125 z"
   style="font-size:medium;font-style:normal;font-variant:normal;font-weight:normal;font-stretch:normal;text-indent:0;text-align:start;text-decoration:none;line-height:normal;letter-spacing:normal;word-spacing:normal;text-transform:none;direction:ltr;block-progression:tb;writing-mode:lr-tb;text-anchor:start;baseline-shift:baseline;color:#000000;fill:url(#linearGradient4341);fill-opacity:1;fill-rule:nonzero;stroke:none;stroke-width:1px;marker:none;visibility:visible;display:inline;overflow:visible;enable-background:accumulate;font-family:Sans;-inkscape-font-specification:Sans" /><g
   id="g4155"
   transform="scale(10,10)"><path
     sodipodi:nodetypes="ccc"
     inkscape:connector-curvature="0"
     id="path3290"
     d="m 7.2519969,6.0299739 c 0.1689795,0.7292038 1.4763524,0.8476464 1.4763524,0.8476464 l 0,0"
     style="fill:none;stroke:url(#linearGradient4310);stroke-width:0.03;stroke-linecap:round;stroke-linejoin:miter;stroke-miterlimit:4;stroke-opacity:1;stroke-dasharray:none;filter:url(#filter4064)" /><path
     transform="matrix(0,1,-1,0,18.035299,-5.118131)"
     sodipodi:nodetypes="ccc"
     inkscape:connector-curvature="0"
     id="path3290-9"
     d="m 10.023105,5.6583021 c 0.16898,0.7292038 1.476353,0.8476464 1.476353,0.8476464 l 0,0"
     style="fill:none;stroke:url(#linearGradient4312);stroke-width:0.03;stroke-linecap:round;stroke-linejoin:miter;stroke-miterlimit:4;stroke-opacity:1;stroke-dasharray:none;filter:url(#filter4064-0)" /><path
     transform="matrix(-0.59558542,0.80329198,-0.80329198,-0.59558542,24.875577,2.6389017)"
     sodipodi:nodetypes="ccc"
     inkscape:connector-curvature="0"
     id="path3290-5"
     d="m 10.28827,6.6084769 c 0.16898,0.7292038 1.476353,0.8476464 1.476353,0.8476464 l 0,0"
     style="fill:none;stroke:url(#linearGradient4314);stroke-width:0.03;stroke-linecap:round;stroke-linejoin:miter;stroke-miterlimit:4;stroke-opacity:1;stroke-dasharray:none;filter:url(#filter4064-6)" /></g><g
   id="g4205"
   transform="scale(10,10)"><g
     id="g3113"><rect
       style="fill:#28170b;fill-opacity:1"
       id="rect3020"
       height="3.1298919"
       width="1.2642423"
       y="10.465242"
       x="-4.521297"
       transform="scale(-1,1)" /><rect
       style="fill:url(#linearGradient4316);fill-opacity:1"
       id="rect3020-1"
       height="3.1298919"
       width="1.2642423"
       y="10.465242"
       x="-4.521297"
       transform="scale(-1,1)" /></g><g
     id="g3281"><polygon
       style="fill:#004a2a;fill-opacity:1"
       id="polygon3018"
       points="14.029,11.304 6.49,11.304 10.261,4.095 "
       transform="matrix(-1,0,0,1,14.029,-0.31000004)" /><polygon
       style="fill:url(#linearGradient4318);fill-opacity:1"
       id="polygon3018-6"
       points="6.49,11.304 10.261,4.095 14.029,11.304 "
       transform="matrix(-1,0,0,1,14.029,-0.31000004)" /><polygon
       style="fill:#004a2a;fill-opacity:1"
       id="polygon3016"
       points="13.302,7.841 7.215,7.841 10.261,2.018 "
       transform="matrix(-1,0,0,1,14.029,-0.31000004)" /><polygon
       style="fill:url(#linearGradient4320);fill-opacity:1"
       id="polygon3016-1"
       points="7.215,7.841 10.261,2.018 13.302,7.841 "
       transform="matrix(-1,0,0,1,14.029,-0.31000004)" /><g
       id="g3277"><polygon
         transform="matrix(-1,0,0,1,14.029,-0.31000004)"
         points="12.488,4.509 8.096,4.509 10.293,0.31 "
         id="polygon3014"
         style="fill:#004a2a;fill-opacity:1" /><polygon
         transform="matrix(-1,0,0,1,14.029,-0.31000004)"
         points="8.096,4.509 10.293,0.31 12.488,4.509 "
         id="polygon3014-3"
         style="fill:url(#linearGradient4322);fill-opacity:1" /></g></g></g></svg>